<svg width="36" height="36" viewBox="0 0 36 36" fill="none" xmlns="http://www.w3.org/2000/svg">
<mask id="mask0_3484_10488" style="mask-type:alpha" maskUnits="userSpaceOnUse" x="0" y="0" width="36" height="36">
<path d="M0 17.9999C0 21.56 1.05568 25.0401 3.03354 28.0002C5.0114 30.9603 7.8226 33.2674 11.1117 34.6297C14.4007 35.9921 18.0199 36.3486 21.5116 35.654C25.0032 34.9595 28.2105 33.2452 30.7278 30.7278C33.2452 28.2105 34.9595 25.0032 35.654 21.5116C36.3486 18.0199 35.9921 14.4007 34.6297 11.1117C33.2674 7.8226 30.9603 5.0114 28.0002 3.03354C25.0401 1.05568 21.56 0 17.9999 0C13.2261 0 8.64771 1.89642 5.27206 5.27206C1.89642 8.64771 0 13.2261 0 17.9999Z" fill="#778FA0"/>
</mask>
<g mask="url(#mask0_3484_10488)">
<path d="M0 17.9999C0 21.56 1.05568 25.0401 3.03354 28.0002C5.0114 30.9603 7.8226 33.2674 11.1117 34.6297C14.4007 35.9921 18.0199 36.3486 21.5116 35.654C25.0032 34.9595 28.2105 33.2452 30.7278 30.7278C33.2452 28.2105 34.9595 25.0032 35.654 21.5116C36.3486 18.0199 35.9921 14.4007 34.6297 11.1117C33.2674 7.8226 30.9603 5.0114 28.0002 3.03354C25.0401 1.05568 21.56 0 17.9999 0C13.2261 0 8.64771 1.89642 5.27206 5.27206C1.89642 8.64771 0 13.2261 0 17.9999Z" fill="#E3E6ED"/>
<path d="M15 20L21 20V27H15V20Z" fill="#F1CDCA"/>
<path d="M6.4906 28.1504C7.93336 26.7703 9.85296 26 11.8495 26H23.1505C25.147 26 27.0666 26.7703 28.5094 28.1504L40 39.1421H-5L6.4906 28.1504Z" fill="#212C5A"/>
<path d="M25.5373 30.0466H24.9006C24.8847 30.0466 24.8688 30.0434 24.8541 30.0372C24.8394 30.031 24.8261 30.0219 24.815 30.0105C24.8038 29.999 24.7951 29.9855 24.7893 29.9706C24.7834 29.9558 24.7806 29.9399 24.7811 29.9239V29.1196C24.7813 29.1039 24.7784 29.0884 24.7725 29.0739C24.7667 29.0594 24.758 29.0462 24.747 29.0351C24.7361 29.024 24.723 29.0152 24.7086 29.0091C24.6941 29.0031 24.6787 29 24.663 29H23.9969C23.9813 29 23.9658 29.0031 23.9514 29.0091C23.937 29.0152 23.9239 29.024 23.9129 29.0351C23.9019 29.0462 23.8933 29.0594 23.8874 29.0739C23.8816 29.0884 23.8787 29.1039 23.8789 29.1196V29.9239C23.8785 29.9554 23.8657 29.9854 23.8433 30.0075C23.8209 30.0295 23.7908 30.0419 23.7593 30.0419H23.1196C23.0879 30.0419 23.0574 30.0545 23.035 30.0769C23.0126 30.0994 23 30.1298 23 30.1615V30.8276C23 30.8433 23.0031 30.8587 23.0091 30.8732C23.0152 30.8876 23.024 30.9007 23.0351 30.9116C23.0462 30.9226 23.0594 30.9313 23.0739 30.9371C23.0884 30.943 23.1039 30.9459 23.1196 30.9457H23.7562C23.7878 30.9461 23.818 30.9588 23.8403 30.9811C23.8626 31.0035 23.8754 31.0336 23.8758 31.0652V31.8804C23.8758 31.9119 23.8882 31.9421 23.9102 31.9644C23.9323 31.9868 23.9623 31.9996 23.9938 32H24.6599C24.6914 31.9996 24.7214 31.9868 24.7435 31.9644C24.7656 31.9421 24.778 31.9119 24.778 31.8804V31.0699C24.778 31.0542 24.781 31.0386 24.7871 31.0241C24.7931 31.0096 24.8019 30.9964 24.813 30.9853C24.8241 30.9742 24.8373 30.9654 24.8518 30.9594C24.8663 30.9534 24.8818 30.9503 24.8975 30.9503H25.5342C25.5656 30.9503 25.5958 30.9379 25.6182 30.9158C25.6405 30.8938 25.6533 30.8637 25.6537 30.8323V30.1677C25.6537 30.1361 25.6414 30.1058 25.6194 30.0831C25.5973 30.0605 25.5673 30.0474 25.5357 30.0466H25.5373Z" fill="#F45F57"/>
<path d="M25.1092 13.0505C25.1092 13.0505 26.0408 15.9019 23.5 17.6099V12.5L25.1092 13.0505ZM10.6046 13.0293C10.6046 13.0293 10.0964 15.8806 12.2138 17.5886V12.4788L10.6046 13.0293Z" fill="#1B1636"/>
<path d="M12.2137 12.5071V17.7158C12.2137 17.7158 13.4558 22.2046 17.8882 22.2046C22.3205 22.2046 23.5062 17.6311 23.5062 17.6311V12.8741C23.5062 12.8741 23.7885 6.09863 17.8882 6.09863C11.9878 6.09863 12.2137 12.5071 12.2137 12.5071Z" fill="#F9DBDA"/>
<path d="M15.4463 9.76888C15.4463 9.76888 16.3921 13.5378 25.1438 13.5378C25.1438 13.5378 25.0026 6 17.8884 6C10.7741 6 10.5482 13.5378 10.5482 13.5378C10.5482 13.5378 13.5266 12.7332 15.4463 9.76888Z" fill="#1B1636"/>
</g>
</svg>
