<svg width="36" height="36" viewBox="0 0 36 36" fill="none" xmlns="http://www.w3.org/2000/svg">
<circle cx="18" cy="18" r="18" fill="#F1F4F5"/>
<path d="M9.40126 21.4219C8.41588 21.423 7.47117 21.8149 6.77434 22.5116C6.07752 23.2084 5.68548 24.153 5.6842 25.1384C5.68477 25.6312 5.88079 26.1037 6.22926 26.4521C6.57773 26.8006 7.05019 26.9966 7.543 26.9972H21.3495C21.8423 26.9966 22.3147 26.8006 22.6631 26.4521C23.0115 26.1036 23.2073 25.6312 23.2078 25.1384C23.2066 24.1531 22.8147 23.2084 22.118 22.5117C21.4212 21.8149 20.4766 21.423 19.4913 21.4219H9.40126ZM21.1512 20.9338C22.025 21.0705 22.8209 21.516 23.3945 22.1893C23.968 22.8627 24.2811 23.7193 24.277 24.6038C24.2769 24.6889 24.2712 24.7739 24.2599 24.8583H29.0076C29.3544 24.8579 29.6869 24.7199 29.9322 24.4747C30.1774 24.2294 30.3154 23.8969 30.3158 23.5501C30.3158 22.8559 30.0402 22.1901 29.5497 21.699C29.0591 21.2078 28.3937 20.9314 27.6995 20.9306L21.1512 20.9338ZM24.1481 12.523C23.4828 12.5231 22.8324 12.7205 22.2792 13.0902C21.726 13.4599 21.2949 13.9854 21.0404 14.6001C20.7858 15.2149 20.7193 15.8913 20.8492 16.5439C20.979 17.1964 21.2995 17.7958 21.77 18.2663C22.2405 18.7367 22.84 19.0571 23.4925 19.1868C24.1451 19.3166 24.8215 19.2499 25.4362 18.9953C26.0509 18.7406 26.5763 18.3094 26.946 17.7562C27.3156 17.203 27.5129 16.5526 27.5129 15.8872V12.523H24.1481ZM14.4463 9.47577C13.501 9.47577 12.577 9.75607 11.791 10.2812C11.0051 10.8064 10.3925 11.5528 10.0308 12.4261C9.66902 13.2994 9.57438 14.2604 9.75879 15.1875C9.9432 16.1146 10.3984 16.9662 11.0668 17.6345C11.7352 18.3029 12.5868 18.7581 13.5139 18.9425C14.441 19.127 15.4019 19.0323 16.2752 18.6706C17.1485 18.3088 17.8949 17.6963 18.4201 16.9103C18.9453 16.1244 19.2256 15.2003 19.2256 14.2551V9.47363L14.4463 9.47577Z" fill="#2E50E6"/>
</svg>
